<svg width="173" height="173" viewBox="0 0 173 173" fill="none" xmlns="http://www.w3.org/2000/svg">
<path d="M172.985 72.3518C173 72.1533 173 71.9701 173 71.7716V20.5083C173 16.5227 171.412 12.9036 168.817 10.2618C168.726 10.1702 168.634 10.0786 168.558 10.0022L162.91 4.35211C162.864 4.30629 162.833 4.27575 162.788 4.22994C160.147 1.60341 156.514 0 152.514 0H71.9141C63.8389 0 57.2901 6.55106 57.2901 14.6292V21.6994L39.8726 4.27575C37.2317 1.63395 33.5681 0 29.5381 0H21.2949C17.5091 0 14.0439 1.43543 11.4489 3.80237C11.3878 3.84818 11.342 3.90926 11.2809 3.95507L10.6245 4.62698C10.5635 4.67279 10.5177 4.73387 10.4566 4.79495L0 15.24V172.985H57.2901V102.679L123.312 168.724C125.968 171.366 129.616 173 133.646 173H152.743C156.62 173 160.131 171.503 162.742 169.045L168.71 163.074C171.367 160.432 173 156.767 173 152.736V143.513C173 139.725 171.565 136.274 169.199 133.678C169.123 133.602 169.046 133.51 168.955 133.434L121.969 86.4007H158.376C166.253 86.4007 172.679 80.1551 172.985 72.3518ZM144.637 57.9975H93.5754L86.9503 51.3701V29.2584H129.906L144.637 43.9944V57.9975ZM86.2329 52.7597L79.6078 46.1323V24.0206H122.564L137.295 38.7566V52.7597H86.2329Z" fill="#FF2E00"/>
</svg>
