<svg width="25" height="29" viewBox="0 0 25 29" fill="none" xmlns="http://www.w3.org/2000/svg">
<g clip-path="url(#clip0_25_13)">
<path d="M12.5056 7.98635C8.95648 7.98635 6.09375 10.892 6.09375 14.4944C6.09375 18.0967 8.95648 21.0024 12.5056 21.0024C16.0547 21.0024 18.9174 18.0967 18.9174 14.4944C18.9174 10.892 16.0547 7.98635 12.5056 7.98635ZM12.5056 18.7254C10.2121 18.7254 8.33706 16.828 8.33706 14.4944C8.33706 12.1608 10.2065 10.2633 12.5056 10.2633C14.8047 10.2633 16.6741 12.1608 16.6741 14.4944C16.6741 16.828 14.7991 18.7254 12.5056 18.7254ZM20.6752 7.72014C20.6752 8.56409 20.0056 9.23811 19.1797 9.23811C18.3482 9.23811 17.6842 8.55842 17.6842 7.72014C17.6842 6.88186 18.3538 6.20217 19.1797 6.20217C20.0056 6.20217 20.6752 6.88186 20.6752 7.72014ZM24.9219 9.26077C24.827 7.22737 24.3694 5.4262 22.9018 3.94221C21.4397 2.45823 19.6652 1.99377 17.6618 1.89182C15.5971 1.77288 9.40849 1.77288 7.34375 1.89182C5.34599 1.98811 3.57143 2.45256 2.1038 3.93655C0.636165 5.42053 0.184156 7.2217 0.0837097 9.2551C-0.0334778 11.3508 -0.0334778 17.6322 0.0837097 19.728C0.178576 21.7614 0.636165 23.5625 2.1038 25.0465C3.57143 26.5305 5.34041 26.9949 7.34375 27.0969C9.40849 27.2158 15.5971 27.2158 17.6618 27.0969C19.6652 27.0006 21.4397 26.5362 22.9018 25.0465C24.3638 23.5625 24.8214 21.7614 24.9219 19.728C25.0391 17.6322 25.0391 11.3565 24.9219 9.26077ZM22.2545 21.9766C21.8192 23.0867 20.9766 23.942 19.8772 24.3895C18.231 25.0522 14.3248 24.8992 12.5056 24.8992C10.6864 24.8992 6.77456 25.0465 5.13393 24.3895C4.04018 23.9477 3.19755 23.0924 2.7567 21.9766C2.1038 20.3057 2.25447 16.3408 2.25447 14.4944C2.25447 12.6479 2.10938 8.67737 2.7567 7.01213C3.19197 5.90198 4.0346 5.0467 5.13393 4.59924C6.78014 3.93655 10.6864 4.08948 12.5056 4.08948C14.3248 4.08948 18.2366 3.94221 19.8772 4.59924C20.971 5.04104 21.8136 5.89631 22.2545 7.01213C22.9074 8.68303 22.7567 12.6479 22.7567 14.4944C22.7567 16.3408 22.9074 20.3114 22.2545 21.9766Z" fill="#252525"/>
</g>
<defs>
<clipPath id="clip0_25_13">
<rect width="25" height="29" fill="white"/>
</clipPath>
</defs>
</svg>
