<svg width="272" height="92" viewBox="0 0 272 92" fill="none" xmlns="http://www.w3.org/2000/svg">
<path d="M92.1604 38.4761C92.1685 38.3706 92.1685 38.2731 92.1685 38.1675V10.9062C92.1685 8.78665 91.3227 6.86204 89.9401 5.45715C89.8913 5.40842 89.8425 5.3597 89.8019 5.31909L86.7928 2.31441C86.7684 2.29005 86.7521 2.27381 86.7277 2.24945C85.3207 0.852679 83.3851 0 81.2544 0H38.3134C34.0112 0 30.5222 3.4838 30.5222 7.77968V11.5396L21.2428 2.27381C19.8358 0.86892 17.8839 0 15.7369 0H11.3452C9.32827 0 7.48213 0.763351 6.09957 2.02207C6.06703 2.04643 6.04264 2.07891 6.01011 2.10327L5.6604 2.46059C5.62787 2.48495 5.60347 2.51743 5.57094 2.54992L0 8.10451V91.9919H30.5222V54.6039L46.3242 70.3826L65.6964 89.7262C67.1115 91.1311 69.0552 92 71.2023 92H81.3763C83.4421 92 85.3126 91.2042 86.7033 89.8967L89.8832 86.7215C91.2983 85.3166 92.1685 83.3676 92.1685 81.2238V76.3188C92.1685 74.3049 91.404 72.4696 90.1434 71.0891C90.1028 71.0485 90.0621 70.9997 90.0133 70.9591L64.9807 45.9472H84.3773C88.5738 45.9472 91.9977 42.6258 92.1604 38.4761ZM77.0578 30.8426H49.8538L46.3242 27.3182V15.5594H69.2097L77.0578 23.3959V30.8426ZM73.1379 28.0572H45.9419L42.4123 24.5328V12.7739H65.2979L73.146 20.6105V28.0572H73.1379Z" fill="#FF2E00"/>
<path d="M105.335 63.1063V28.4307H114.111V63.1145H105.335V63.1063ZM111.89 52.5575V45.8173H120.145C121.186 45.8173 122.081 45.6142 122.837 45.2082C123.593 44.8022 124.179 44.2175 124.61 43.4622C125.033 42.707 125.244 41.83 125.244 40.823C125.244 39.7835 125.033 38.8903 124.61 38.135C124.187 37.3798 123.593 36.8032 122.837 36.3891C122.081 35.983 121.186 35.78 120.145 35.78H111.89V28.4307H119.633C122.618 28.4307 125.204 28.8774 127.375 29.7707C129.547 30.6639 131.214 31.9876 132.377 33.7255C133.54 35.4714 134.125 37.6315 134.125 40.2058V40.961C134.125 43.5353 133.532 45.6792 132.352 47.3927C131.173 49.1062 129.506 50.3892 127.351 51.2582C125.196 52.119 122.626 52.5575 119.633 52.5575H111.89ZM126.098 63.1063L116.429 48.4971H125.96L136.199 63.1063H126.098Z" fill="#FF2E00"/>
<path d="M151.627 64.0483C149.423 64.0483 147.471 63.6748 145.772 62.9196C144.072 62.1643 142.64 61.1492 141.477 59.858C140.314 58.5668 139.428 57.1213 138.81 55.5216C138.2 53.9218 137.891 52.2733 137.891 50.576V49.634C137.891 47.8718 138.2 46.1827 138.81 44.5667C139.42 42.9506 140.306 41.5133 141.453 40.2545C142.6 38.9958 144.007 37.997 145.674 37.2661C147.341 36.5271 149.228 36.1617 151.334 36.1617C154.132 36.1617 156.507 36.787 158.459 38.0457C160.41 39.3044 161.907 40.961 162.94 43.0156C163.981 45.0701 164.501 47.3115 164.501 49.7315V52.4682H141.469V47.8474H159.54L156.564 49.9182C156.564 48.4403 156.368 47.1897 155.97 46.1746C155.58 45.1514 154.994 44.3799 154.221 43.8439C153.449 43.3079 152.481 43.04 151.318 43.04C150.188 43.04 149.204 43.2998 148.366 43.8196C147.528 44.3393 146.894 45.127 146.455 46.1746C146.015 47.2303 145.796 48.5539 145.796 50.1537C145.796 51.5992 145.999 52.8498 146.406 53.8974C146.813 54.9531 147.447 55.7571 148.293 56.3255C149.138 56.894 150.245 57.1701 151.595 57.1701C152.79 57.1701 153.774 56.967 154.547 56.561C155.319 56.155 155.856 55.6028 156.173 54.9125H164.005C163.631 56.6747 162.883 58.242 161.76 59.6225C160.646 61.0031 159.231 62.0912 157.515 62.8708C155.832 63.6585 153.855 64.0483 151.627 64.0483Z" fill="#FF2E00"/>
<path d="M166.486 34.9273V28.7068H178.002V34.9273H166.486ZM169.413 63.1064V28.715H178.002V63.1145H169.413V63.1064Z" fill="#FF2E00"/>
<path d="M197.301 64.0484C195.007 64.0484 192.958 63.6992 191.169 63.0089C189.379 62.3186 187.859 61.3604 186.614 60.1341C185.37 58.9079 184.426 57.4949 183.784 55.8951C183.142 54.2953 182.816 52.5818 182.816 50.7628V49.634C182.816 47.75 183.158 45.9878 183.833 44.3555C184.508 42.7233 185.476 41.294 186.736 40.0678C187.997 38.8415 189.518 37.8833 191.315 37.193C193.112 36.5028 195.105 36.1536 197.309 36.1536C199.545 36.1536 201.546 36.5028 203.327 37.193C205.1 37.8833 206.621 38.8415 207.881 40.0678C209.142 41.294 210.11 42.7233 210.785 44.3555C211.46 45.9878 211.801 47.75 211.801 49.634V50.7628C211.801 52.5818 211.476 54.2953 210.834 55.8951C210.191 57.4949 209.248 58.9079 208.003 60.1341C206.759 61.3604 205.246 62.3186 203.449 63.0089C201.644 63.7073 199.602 64.0484 197.301 64.0484ZM197.301 56.8858C198.618 56.8858 199.716 56.6016 200.578 56.0413C201.44 55.4728 202.099 54.6851 202.538 53.6619C202.977 52.6387 203.197 51.4855 203.197 50.2025C203.197 48.8544 202.969 47.6688 202.514 46.6456C202.058 45.6224 201.391 44.8184 200.505 44.2175C199.627 43.6247 198.553 43.3242 197.292 43.3242C196.032 43.3242 194.967 43.6247 194.08 44.2175C193.202 44.8103 192.527 45.6224 192.071 46.6456C191.616 47.6688 191.388 48.8544 191.388 50.2025C191.388 51.4937 191.608 52.6468 192.047 53.6619C192.486 54.6851 193.145 55.4728 194.031 56.0413C194.926 56.6097 196.016 56.8858 197.301 56.8858Z" fill="#FF2E00"/>
<path d="M224.017 63.7722C222.195 63.7722 220.568 63.4393 219.153 62.7815C217.738 62.1237 216.632 61.1736 215.827 59.9311C215.022 58.6887 214.623 57.2026 214.623 55.481C214.623 53.532 215.144 51.9566 216.177 50.7466C217.218 49.5366 218.649 48.6514 220.471 48.083C222.293 47.5145 224.391 47.2384 226.749 47.2384H231.8V51.6642H226.749C225.586 51.6642 224.692 51.9566 224.057 52.5331C223.431 53.1178 223.114 53.8893 223.114 54.8638C223.114 55.8058 223.431 56.5691 224.057 57.1457C224.684 57.7304 225.586 58.0146 226.749 58.0146C227.506 58.0146 228.173 57.8847 228.758 57.6167C229.344 57.3487 229.823 56.8858 230.198 56.2281C230.572 55.5703 230.791 54.6608 230.856 53.4914L232.841 55.3754C232.686 57.162 232.247 58.6805 231.54 59.923C230.832 61.1655 229.856 62.1156 228.612 62.7734C227.367 63.4393 225.838 63.7722 224.017 63.7722ZM232.271 63.1063V55.4728H230.856V47.3196C230.856 46.1259 230.58 45.2407 230.027 44.656C229.474 44.0794 228.571 43.7871 227.31 43.7871C226.709 43.7871 225.83 43.8033 224.667 43.8358C223.504 43.8683 222.276 43.917 220.983 43.9739C219.69 44.0388 218.511 44.0957 217.445 44.1606V36.9981C218.202 36.9332 219.096 36.8763 220.137 36.8114C221.178 36.7464 222.252 36.7058 223.374 36.6733C224.488 36.6408 225.521 36.6246 226.465 36.6246C229.14 36.6246 231.409 37.0144 233.28 37.8021C235.15 38.5898 236.582 39.7673 237.574 41.3346C238.566 42.91 239.062 44.8996 239.062 47.3196V63.1063H232.271Z" fill="#FF2E00"/>
<path d="M255.531 63.959C253.709 63.959 252.05 63.6261 250.554 62.9683C249.057 62.3105 247.773 61.3929 246.683 60.2154C245.601 59.0379 244.763 57.6492 244.178 56.0413C243.592 54.4415 243.308 52.6955 243.308 50.8115V49.6827C243.308 47.7987 243.584 46.0446 244.137 44.4286C244.69 42.8126 245.479 41.3996 246.52 40.1896C247.561 38.9796 248.814 38.0376 250.294 37.3636C251.774 36.6895 253.425 36.3485 255.247 36.3485C257.353 36.3485 259.158 36.8114 260.647 37.7371C262.143 38.6629 263.29 40.0109 264.095 41.765C264.9 43.5272 265.331 45.663 265.396 48.1723L263.412 46.7106V28.715H272V63.1145H265.209V52.5575H266.153C266.087 54.88 265.616 56.9021 264.737 58.6156C263.859 60.3291 262.639 61.6446 261.078 62.5704C259.524 63.4961 257.67 63.959 255.531 63.959ZM257.849 56.8859C258.89 56.8859 259.842 56.6504 260.704 56.1793C261.566 55.7083 262.265 55.0181 262.802 54.1086C263.339 53.199 263.607 52.1027 263.607 50.8115V49.2117C263.607 47.953 263.33 46.9054 262.777 46.0528C262.224 45.2082 261.517 44.5504 260.655 44.0957C259.793 43.6409 258.857 43.4135 257.849 43.4135C256.719 43.4135 255.702 43.7059 254.807 44.2824C253.913 44.8671 253.205 45.663 252.685 46.6862C252.164 47.7094 251.904 48.895 251.904 50.2431C251.904 51.5911 252.164 52.7605 252.685 53.7512C253.205 54.742 253.913 55.5134 254.807 56.0575C255.702 56.6179 256.71 56.8859 257.849 56.8859Z" fill="#FF2E00"/>
</svg>
